GRF
version=1
nRows=12
nColumns=19
inDegrees=no
endheader
time	ground_force_vx	ground_force_vy	ground_force_vz	ground_force_px	ground_force_py	ground_force_pz	ground_torque_x	ground_torque_y	ground_torque_z	1_ground_force_vx	1_ground_force_vy	1_ground_force_vz	1_ground_force_px	1_ground_force_py	1_ground_force_pz	1_ground_torque_x	1_ground_torque_y	1_ground_torque_z
      5.25000000	    -41.05030046	    327.22050534	      6.21063678	      0.17433594	     -0.00000000	     -0.06118422	     -0.00000000	     -0.19249880	      0.00000000	     42.87663802	    384.06557228	     -5.33741176	     -0.24049437	      0.00000000	     -0.02186258	      0.00000000	      1.14922426	     -0.00000000
      5.25100000	    -41.05223300	    327.22956960	      6.19665228	      0.17433758	     -0.00000000	     -0.06116234	     -0.00000000	     -0.19140377	      0.00000000	     42.87317331	    384.05697560	     -5.34313426	     -0.24049644	      0.00000000	     -0.02184960	      0.00000000	      1.14852850	     -0.00000000
      5.25200000	    -41.05444620	    327.23905420	      6.18244297	      0.17433932	     -0.00000000	     -0.06114058	     -0.00000000	     -0.19018994	      0.00000000	     42.86953987	    384.04727623	     -5.34907808	     -0.24049878	      0.00000000	     -0.02183635	      0.00000000	      1.14783223	     -0.00000000
      5.25300000	    -41.05692629	    327.24892232	      6.16802667	      0.17434117	     -0.00000000	     -0.06111900	     -0.00000000	     -0.18887593	      0.00000000	     42.86575480	    384.03648889	     -5.35522991	     -0.24050141	      0.00000000	     -0.02182286	      0.00000000	      1.14713956	     -0.00000000
      5.25400000	    -41.05966125	    327.25913406	      6.15342121	      0.17434315	     -0.00000000	     -0.06109764	     -0.00000000	     -0.18748092	      0.00000000	     42.86183391	    384.02463031	     -5.36157563	     -0.24050432	      0.00000000	     -0.02180918	      0.00000000	      1.14645481	     -0.00000000
      5.25500000	    -41.06264078	    327.26964675	      6.13864437	      0.17434527	     -0.00000000	     -0.06107654	     -0.00000000	     -0.18602447	      0.00000000	     42.85779151	    384.01171936	     -5.36810039	     -0.24050751	      0.00000000	     -0.02179535	      0.00000000	      1.14578250	     -0.00000000
      5.25600000	    -41.06585641	    327.28041541	      6.12371380	      0.17434754	     -0.00000000	     -0.06105575	     -0.00000000	     -0.18452629	      0.00000000	     42.85364024	    383.99777703	     -5.37478867	     -0.24051097	      0.00000000	     -0.02178141	      0.00000000	      1.14512732	     -0.00000000
      5.25700000	    -41.06930144	    327.29139307	      6.10864703	      0.17434997	     -0.00000000	     -0.06103531	     -0.00000000	     -0.18300600	      0.00000000	     42.84939091	    383.98282656	     -5.38162435	     -0.24051470	      0.00000000	     -0.02176739	      0.00000000	      1.14449407	     -0.00000000
      5.25800000	    -41.07297091	    327.30253127	      6.09346141	      0.17435257	     -0.00000000	     -0.06101525	     -0.00000000	     -0.18148293	      0.00000000	     42.84505248	    383.96689347	     -5.38859084	     -0.24051869	      0.00000000	     -0.02175334	      0.00000000	      1.14388765	     -0.00000000
      5.25900000	    -41.07686148	    327.31378036	      6.07817406	      0.17435535	     -0.00000000	     -0.06099560	     -0.00000000	     -0.17997594	      0.00000000	     42.84063192	    383.95000559	     -5.39567113	     -0.24052294	      0.00000000	     -0.02173928	      0.00000000	      1.14331296	     -0.00000000
      5.26000000	    -41.08097133	    327.32508997	      6.06280190	      0.17435832	     -0.00000000	     -0.06097637	     -0.00000000	     -0.17850319	      0.00000000	     42.83613427	    383.93219307	     -5.40284790	     -0.24052743	      0.00000000	     -0.02172527	      0.00000000	      1.14277489	     -0.00000000
      5.26100000	    -41.08529997	    327.33640937	      6.04736154	      0.17436148	     -0.00000000	     -0.06095758	     -0.00000000	     -0.17708197	      0.00000000	     42.83156261	    383.91348843	     -5.41010364	     -0.24053215	      0.00000000	     -0.02171132	      0.00000000	      1.14227825	     -0.00000000
